Coordinates
version=1
nRows=8
nColumns=42
inDegrees=yes

Units are S.I. units (second, meters, Newtons, ...)
If the header above contains a line with 'inDegrees', this indicates whether rotational values are in degrees (yes) or radians (no).

endheader
time	pelvis_tilt	pelvis_list	pelvis_rotation	pelvis_tx	pelvis_ty	pelvis_tz	hip_flexion_r	hip_adduction_r	hip_rotation_r	knee_angle_r	knee_adduction_r	knee_angle_r_beta	ankle_angle_r	subtalar_angle_r	mtp_angle_r	hip_flexion_l	hip_adduction_l	hip_rotation_l	knee_angle_l	knee_adduction_l	knee_angle_l_beta	ankle_angle_l	subtalar_angle_l	mtp_angle_l	lumbar_extension	lumbar_bending	lumbar_rotation	arm_flex_r	arm_add_r	arm_rot_r	elbow_flex_r	pro_sup_r	wrist_flex_r	wrist_dev_r	arm_flex_l	arm_add_l	arm_rot_l	elbow_flex_l	pro_sup_l	wrist_flex_l	wrist_dev_l
     12.65000000	    -11.27271271	      2.90279164	      1.24466678	      0.78573364	      0.94828451	      0.47481085	     34.40470672	     -3.46939375	    -10.96907227	     11.28370488	      0.00000000	      0.19693780	      7.24775387	     12.33207524	      0.98224531	      1.27757976	      1.03645436	    -14.60266610	     20.12113683	      0.00000000	      0.35118009	     14.68513576	     10.97689307	      0.98224531	      0.00000000	      0.00000000	      0.00000000	      0.00000000	     -6.50147767	      0.00000000	     74.60601195	     90.00000001	      0.00000000	      0.00000000	      0.00000000	     -6.50147767	      0.00000000	     74.60601195	     90.00000001	      0.00000000	      0.00000000
     12.65500000	    -11.10018849	      2.93790755	      1.32129366	      0.78627964	      0.94786129	      0.47539071	     34.15336569	     -3.50044716	    -10.83362703	     11.90731657	      0.00000000	      0.20782188	      6.94160635	     11.71842294	      0.97204185	      0.95123387	      0.98008320	    -14.42323734	     20.58646053	      0.00000000	      0.35930152	     14.51475503	     10.60125382	      0.97204185	      0.00000000	      0.00000000	      0.00000000	      0.00000000	     -6.50876314	      0.00000000	     74.60666960	     90.00000001	      0.00000000	      0.00000000	      0.00000000	     -6.50876314	      0.00000000	     74.60666960	     90.00000001	      0.00000000	      0.00000000
     12.66000000	    -11.04086308	      3.02063020	      1.38979859	      0.78684960	      0.94733905	      0.47599003	     33.89696089	     -3.51916709	    -10.37551342	     12.24643515	      0.00000000	      0.21374061	      6.50214067	     10.47677571	      0.92553384	      0.70549691	      1.03881489	    -13.95830951	     20.94602581	      0.00000000	      0.36557712	     14.20815266	      9.76621437	      0.92553384	      0.00000000	      0.00000000	      0.00000000	      0.00000000	     -6.54291968	      0.00000000	     74.60974563	     90.00000001	      0.00000000	      0.00000000	      0.00000000	     -6.54291968	      0.00000000	     74.60974563	     90.00000001	      0.00000000	      0.00000000
     12.66500000	    -10.89263121	      3.03219665	      1.50093602	      0.78760001	      0.94691765	      0.47648345	     33.59262298	     -3.54945064	    -10.37116408	     12.75075131	      0.00000000	      0.22254259	      6.21507509	      9.86083717	      0.91704109	      0.45128314	      0.95422174	    -13.74395093	     21.51540617	      0.00000000	      0.37551468	     14.02102797	      9.38278685	      0.91704109	      0.00000000	      0.00000000	      0.00000000	      0.00000000	     -6.54931961	      0.00000000	     74.61032074	     90.00000001	      0.00000000	      0.00000000	      0.00000000	     -6.54931961	      0.00000000	     74.61032074	     90.00000001	      0.00000000	      0.00000000
     12.67000000	    -10.89167025	      2.98065419	      1.69854421	      0.78817950	      0.94644988	      0.47694638	     33.29041779	     -3.49755462	    -10.13843273	     12.84982668	      0.00000000	      0.22427178	      5.50090300	      8.44470664	      0.86990045	      0.38728178	      0.84705111	    -13.19999479	     22.07486207	      0.00000000	      0.38527903	     13.70918721	      8.50052894	      0.86990045	      0.00000000	      0.00000000	      0.00000000	      0.00000000	     -6.58595288	      0.00000000	     74.61360428	     90.00000001	      0.00000000	      0.00000000	      0.00000000	     -6.58595288	      0.00000000	     74.61360428	     90.00000001	      0.00000000	      0.00000000
     12.67500000	    -10.81011877	      2.89110706	      1.83966781	      0.78889218	      0.94616419	      0.47737665	     32.95341279	     -3.42506312	    -10.17218298	     12.99132285	      0.00000000	      0.22674136	      4.61967848	      7.39191321	      0.82651910	      0.28540947	      0.66573914	    -12.87807638	     22.74764055	      0.00000000	      0.39702122	     13.39648140	      7.85197940	      0.82651910	      0.00000000	      0.00000000	      0.00000000	      0.00000000	     -6.62122013	      0.00000000	     74.61675347	     90.00000001	      0.00000000	      0.00000000	      0.00000000	     -6.62122013	      0.00000000	     74.61675347	     90.00000001	      0.00000000	      0.00000000
     12.68000000	    -10.72483269	      2.77398861	      1.99037593	      0.78954991	      0.94597345	      0.47775302	     32.66674499	     -3.36218390	    -10.36891493	     13.20776248	      0.00000000	      0.23051894	      3.60432172	      6.54505663	      0.79892435	      0.18940393	      0.48899048	    -12.43156831	     23.39914837	      0.00000000	      0.40839218	     13.00740236	      7.01917618	      0.79892435	      0.00000000	      0.00000000	      0.00000000	      0.00000000	     -6.64454396	      0.00000000	     74.61882941	     90.00000001	      0.00000000	      0.00000000	      0.00000000	     -6.64454396	      0.00000000	     74.61882941	     90.00000001	      0.00000000	      0.00000000
     12.68500000	    -10.65281420	      2.73359193	      1.87664500	      0.79032595	      0.94585491	      0.47830506	     32.50177146	     -3.28357229	    -10.34178079	     13.64228783	      0.00000000	      0.23810284	      2.91885590	      6.46545169	      0.79608050	      0.02746344	      0.40210256	    -12.22681835	     23.91364289	      0.00000000	      0.41737180	     12.59300980	      6.76878170	      0.79608050	      0.00000000	      0.00000000	      0.00000000	      0.00000000	     -6.64699166	      0.00000000	     74.61904691	     90.00000001	      0.00000000	      0.00000000	      0.00000000	     -6.64699166	      0.00000000	     74.61904691	     90.00000001	      0.00000000	      0.00000000
